<svg xmlns="http://www.w3.org/2000/svg" xmlns:xlink="http://www.w3.org/1999/xlink" width="180" zoomAndPan="magnify" viewBox="0 0 135 30.000001" height="40" preserveAspectRatio="xMidYMid meet" version="1.0"><defs><g/><clipPath id="bf3c86ff3f"><path d="M 3.367188 9 L 17 9 L 17 25.851562 L 3.367188 25.851562 Z M 3.367188 9 " clip-rule="nonzero"/></clipPath><clipPath id="e2f0eecf0b"><path d="M 22 4.078125 L 35.300781 4.078125 L 35.300781 21 L 22 21 Z M 22 4.078125 " clip-rule="nonzero"/></clipPath></defs><g clip-path="url(#bf3c86ff3f)"><path fill="#ff0155" d="M 16.167969 9.21875 L 10.960938 18.238281 L 6.585938 25.816406 L 3.367188 20.25 L 6.277344 15.210938 L 9.738281 9.21875 Z M 16.167969 9.21875 " fill-opacity="1" fill-rule="nonzero"/></g><g clip-path="url(#e2f0eecf0b)"><path fill="#38b6ff" d="M 35.59375 4.078125 L 30.386719 13.097656 L 26.011719 20.679688 L 22.796875 15.109375 L 25.707031 10.074219 L 29.164062 4.078125 Z M 35.59375 4.078125 " fill-opacity="1" fill-rule="nonzero"/></g><path fill="#ffca01" d="M 24.210938 9.21875 L 19 18.238281 L 18.636719 18.867188 L 16.976562 15.984375 L 15.421875 13.300781 L 17.78125 9.21875 Z M 24.210938 9.21875 " fill-opacity="1" fill-rule="nonzero"/><g fill="#ffffff" fill-opacity="1"><g transform="translate(37.027985, 20.665377)"><g><path d="M 0 0 L 1 -1 L 1 -11.964844 L 0.5 -12.964844 L 4.484375 -12.964844 L 8.976562 -3.984375 L 8.976562 -11.964844 L 8.476562 -12.964844 L 10.964844 -12.964844 L 9.96875 -11.964844 L 9.96875 -1 L 10.46875 0 L 6.980469 0 L 1.996094 -9.96875 L 1.996094 -1 L 2.496094 0 Z M 0 0 "/></g></g></g><g fill="#ffffff" fill-opacity="1"><g transform="translate(49.737727, 20.665377)"><g><path d="M 0 0 L 1 -1 L 1 -11.964844 L 0 -12.964844 L 9.96875 -12.964844 L 9.96875 -9.96875 L 7.980469 -11.964844 L 3.984375 -11.964844 L 4.984375 -10.964844 L 4.984375 -7.980469 L 6.980469 -7.980469 L 7.980469 -8.976562 L 7.980469 -5.980469 L 6.980469 -6.980469 L 3.984375 -6.980469 L 4.984375 -5.980469 L 4.984375 -1.496094 L 3.984375 -1 L 7.980469 -1 L 9.96875 -2.996094 L 9.96875 0 Z M 0 0 "/></g></g></g><g fill="#ffffff" fill-opacity="1"><g transform="translate(61.449352, 20.665377)"><g><path d="M 2.496094 0 L 2.996094 -1 L 2.996094 -11.464844 L 3.984375 -11.964844 L 1 -11.964844 L 0 -10.964844 L 0 -12.964844 L 9.96875 -12.964844 L 9.96875 -10.964844 L 8.976562 -11.964844 L 5.980469 -11.964844 L 6.980469 -11.464844 L 6.980469 -1 L 7.480469 0 Z M 2.496094 0 "/></g></g></g><g fill="#ffffff" fill-opacity="1"><g transform="translate(73.160977, 20.665377)"><g><path d="M 1.496094 0 L 0 -1.496094 L 0 -11.464844 L 1.496094 -12.964844 L 7.980469 -12.964844 L 8.976562 -11.964844 L 9.96875 -12.964844 L 9.96875 -8.976562 L 6.980469 -11.964844 L 2.996094 -11.964844 L 3.984375 -10.964844 L 3.984375 -1.996094 L 2.996094 -1 L 6.480469 -1 L 6.980469 -1.496094 L 6.980469 -4.984375 L 7.980469 -5.980469 L 6.980469 -5.980469 L 5.980469 -6.980469 L 10.964844 -6.980469 L 10.46875 -5.980469 L 10.46875 -1 L 9.476562 0 Z M 1.496094 0 "/></g></g></g><g fill="#ffffff" fill-opacity="1"><g transform="translate(85.870718, 20.665377)"><g><path d="M 7.480469 -5.980469 L 7.980469 -6.480469 L 7.980469 -10.964844 L 6.980469 -11.964844 L 3.984375 -11.964844 L 4.984375 -10.964844 L 4.984375 -5.980469 Z M 0 0 L 1 -1 L 1 -11.964844 L 0 -12.964844 L 10.46875 -12.964844 L 11.964844 -11.464844 L 11.964844 -7.480469 L 10.46875 -5.980469 L 12.964844 -1 L 13.960938 0 L 9.476562 0 L 6.980469 -4.984375 L 3.984375 -4.984375 L 4.984375 -3.984375 L 4.984375 -1 L 5.980469 0 Z M 0 0 "/></g></g></g><g fill="#ffffff" fill-opacity="1"><g transform="translate(101.574799, 20.665377)"><g><path d="M 7.980469 -6.980469 L 7.980469 -10.964844 L 6.980469 -11.964844 L 5.980469 -11.964844 L 4.984375 -10.964844 L 4.984375 -6.980469 Z M 0 0 L 1 -1 L 1 -9.96875 L 3.984375 -12.964844 L 8.976562 -12.964844 L 11.964844 -9.96875 L 11.964844 -1 L 12.964844 0 L 7.480469 0 L 7.980469 -1 L 7.980469 -4.984375 L 8.976562 -5.980469 L 3.984375 -5.980469 L 4.984375 -4.984375 L 4.984375 -1 L 5.484375 0 Z M 0 0 "/></g></g></g><g fill="#ffffff" fill-opacity="1"><g transform="translate(116.280764, 20.665377)"><g><path d="M 0 0 L 1 -1 L 1 -11.964844 L 0 -12.964844 L 4.484375 -12.964844 L 7.480469 -6.980469 L 9.96875 -11.964844 L 9.476562 -12.964844 L 14.460938 -12.964844 L 13.960938 -11.964844 L 13.960938 -1 L 14.960938 0 L 9.476562 0 L 9.96875 -1 L 9.96875 -8.976562 L 5.980469 -1 L 1.996094 -8.976562 L 1.996094 -1 L 2.496094 0 Z M 0 0 "/></g></g></g></svg>